# xmcd
#
# Track frame offsets:
# 150
# 11695
# 24563
# 33210
# 43020
# 53978
# 64776
# 74455
# 85831
# 96237
# 106860
# 118741
# 130306
# 142964
# 154889
# 167574
# 178195
# 189557
# 201625
# 213526
# 224516
# 236853
# 248130
# 261757
# 274092
# 286877
#
# Disc length: 3965 seconds
#
#
# Revision: 1
# Processed by: cddbd v1.5.2PL0 Copyright (c) Steve Scherf et al.
# Submitted via: FreeRIP 2.945 
#
DISCID=8f0f7b1a
DTITLE=Jim Reeves - Have I Told You Lately That I Love You? [CD1]
DYEAR=2009
DGENRE=Country
TTITLE0=Roly Poly
TTITLE1=Have I Told You Lately That I Love You?
TTITLE2=Breeze (Blow My Baby Back To Me)
TTITLE3=Waltzing On Top Of the World
TTITLE4=Oklahoma Hills
TTITLE5=Love Me A Little Bit More
TTITLE6=Tweedle O'Twill
TTITLE7=Each Time You Leave
TTITLE8=Ichabod Crane
TTITLE9=Your Old Love Letters
TTITLE10=Beyond The Shadow Of A Doubt
TTITLE11=Highway To Nowhere
TTITLE12=Bimbo
TTITLE13=How Many
TTITLE14=Echo Bonita
TTITLE15=Where Does A Broken Heart Go
TTITLE16=Penny Candy
TTITLE17=Shall We gather At The River (Mother Went A Walkin')
TTITLE18=Mexican Joe
TTITLE19=Then I'll Stop Loving You
TTITLE20=Drinking Tequila
TTITLE21=Gypsy Heart
TTITLE22=What Were You Doing Last Night?
TTITLE23=Let Me Love Just A Little
TTITLE24=Four Walls
TTITLE25=Two Shadows On Your Window
EXTD=Disc 1\nTracks 1 - 12 from the album "Singing Down The lane"\nReleased 1956\nTracks 13 - 24 from the album "Bimbo"\nReleased 1956\nTracks 25 and 26 Bonus tracks.
EXTT0=
EXTT1=
EXTT2=
EXTT3=
EXTT4=
EXTT5=
EXTT6=
EXTT7=
EXTT8=
EXTT9=
EXTT10=
EXTT11=
EXTT12=
EXTT13=
EXTT14=
EXTT15=
EXTT16=
EXTT17=
EXTT18=
EXTT19=
EXTT20=
EXTT21=
EXTT22=
EXTT23=
EXTT24=
EXTT25=
PLAYORDER=
